Coordinates
version=1
nRows=14
nColumns=40
inDegrees=yes

Units are S.I. units (second, meters, Newtons, ...)
If the header above contains a line with 'inDegrees', this indicates whether rotational values are in degrees (yes) or radians (no).

endheader
time	pelvis_tilt	pelvis_list	pelvis_rotation	pelvis_tx	pelvis_ty	pelvis_tz	hip_flexion_r	hip_adduction_r	hip_rotation_r	knee_angle_r	knee_angle_r_beta	ankle_angle_r	subtalar_angle_r	mtp_angle_r	hip_flexion_l	hip_adduction_l	hip_rotation_l	knee_angle_l	knee_angle_l_beta	ankle_angle_l	subtalar_angle_l	mtp_angle_l	lumbar_extension	lumbar_bending	lumbar_rotation	arm_flex_r	arm_add_r	arm_rot_r	elbow_flex_r	pro_sup_r	wrist_flex_r	wrist_dev_r	arm_flex_l	arm_add_l	arm_rot_l	elbow_flex_l	pro_sup_l	wrist_flex_l	wrist_dev_l
      0.75000000	      0.71257250	      6.95622618	    -86.60990096	      0.23060566	      0.88314720	     -0.08469702	     32.11137932	     -2.23458345	     -4.13831024	      0.91083247	      0.01589703	      3.33940334	      0.00000000	      0.00000000	    -17.23962361	      1.99301291	     10.40782108	      1.50144350	      0.02620513	     14.61519293	     -0.00000000	      0.00000000	     -4.55657845	     -1.80317907	    -12.57515346	      0.00000000	      0.00000000	      0.00000000	      0.00000000	      0.00000000	      0.00000000	      0.00000000	     -0.00000000	     -0.00000000	     -0.00000000	      0.00000000	      0.00000000	     -0.00000000	     -0.00000000
      0.76000000	      0.61328311	      6.71044403	    -86.60024985	      0.22984687	      0.88158570	     -0.06909649	     31.70107438	     -1.86863135	     -3.88102166	      1.47412743	      0.02572838	      1.85865538	     -0.00000000	      0.00000000	    -17.38352290	      1.84996336	      9.90034590	      3.70468567	      0.06465896	     14.99312000	     -0.00000000	      0.00000000	     -4.63843144	     -1.54591374	    -12.59071345	      0.00000000	     -0.00000000	     -0.00000000	      0.00000000	      0.00000000	      0.00000000	     -0.00000000	     -0.00000000	     -0.00000000	     -0.00000000	      0.00000000	      0.00000000	     -0.00000000	     -0.00000000
      0.77000000	      0.43226003	      6.55993994	    -86.63269677	      0.22901229	      0.88019203	     -0.05336373	     31.50067292	     -1.44559905	     -3.65276510	      2.46465015	      0.04301626	      0.21681251	      0.00000000	      0.00000000	    -17.28169074	      1.63075238	      9.47182340	      6.06814913	      0.10590918	     14.69227754	      0.00000000	      0.00000000	     -4.56476961	     -1.17695892	    -12.52434479	      0.00000000	      0.00000000	      0.00000000	      0.00000000	      0.00000000	      0.00000000	      0.00000000	      0.00000000	      0.00000000	      0.00000000	      0.00000000	      0.00000000	      0.00000000	      0.00000000
      0.78000000	      0.27570903	      6.36702636	    -86.69015017	      0.22818007	      0.87921037	     -0.03761893	     31.34835044	     -1.08482093	     -3.49013944	      3.77568128	      0.06589807	     -1.59049733	      0.00000000	      0.00000000	    -16.97396110	      1.43707758	      8.84542839	      8.78413760	      0.15331212	     14.00095145	      0.00000000	      0.00000000	     -4.54818594	     -0.82227985	    -12.44394619	      0.00000000	      0.00000000	      0.00000000	      0.00000000	      0.00000000	      0.00000000	      0.00000000	      0.00000000	      0.00000000	      0.00000000	      0.00000000	      0.00000000	      0.00000000	      0.00000000
      0.79000000	      0.09905523	      6.11449617	    -86.76548694	      0.22731019	      0.87867736	     -0.02184171	     31.19086609	     -0.74072950	     -3.37143126	      5.33450858	      0.09310474	     -3.35223278	      0.00000000	      0.00000000	    -16.47157225	      1.20402330	      8.04487498	     11.85282045	      0.20687074	     12.90207023	      0.00000000	      0.00000000	     -4.59662996	     -0.43916195	    -12.31017371	      0.00000000	      0.00000000	      0.00000000	      0.00000000	      0.00000000	      0.00000000	      0.00000000	      0.00000000	      0.00000000	      0.00000000	      0.00000000	      0.00000000	      0.00000000	      0.00000000
      0.80000000	     -0.13081950	      5.94243424	    -86.89360606	      0.22629589	      0.87837473	     -0.00612325	     31.20200921	     -0.34882870	     -3.22975156	      7.13875461	      0.12459477	     -4.99802072	      0.00000000	      0.00000000	    -15.59804643	      0.88003541	      6.98500717	     15.30177797	      0.26706641	     11.46242775	      0.00000000	      0.00000000	     -4.54649002	     -0.00702930	    -12.06793163	      0.00000000	      0.00000000	      0.00000000	      0.00000000	      0.00000000	      0.00000000	      0.00000000	      0.00000000	      0.00000000	      0.00000000	      0.00000000	      0.00000000	      0.00000000	      0.00000000
      0.81000000	     -0.35867122	      5.68058159	    -87.04585257	      0.22521399	      0.87856915	      0.00951741	     31.17442486	      0.02248299	     -3.13209654	      9.19052855	      0.16040498	     -6.05942710	      0.00000000	      0.00000000	    -14.56932289	      0.49460839	      5.79604902	     19.03419920	      0.33220945	      9.50387572	      0.00000000	      0.00000000	     -4.61972096	      0.42537129	    -11.83437105	      0.00000000	      0.00000000	      0.00000000	      0.00000000	      0.00000000	      0.00000000	      0.00000000	      0.00000000	      0.00000000	      0.00000000	      0.00000000	      0.00000000	      0.00000000	      0.00000000
      0.82000000	     -0.65279755	      5.27510470	    -87.21566050	      0.22402872	      0.87931481	      0.02511659	     30.98331886	      0.45633160	     -3.11914329	     11.36034067	      0.19827535	     -6.53971472	      0.00000000	      0.00000000	    -13.49120689	     -0.04548722	      4.52855640	     22.96666575	      0.40084394	      7.09269783	      0.00000000	      0.00000000	     -4.87198751	      0.92854936	    -11.60245155	      0.00000000	      0.00000000	      0.00000000	      0.00000000	      0.00000000	      0.00000000	      0.00000000	      0.00000000	      0.00000000	      0.00000000	      0.00000000	      0.00000000	      0.00000000	      0.00000000
      0.83000000	     -1.01958017	      4.97645974	    -87.41694443	      0.22256933	      0.88019509	      0.04052474	     30.87315782	      0.99695173	     -2.99910080	     13.56951929	      0.23683279	     -6.37088030	      0.00000000	      0.00000000	    -12.04682361	     -0.77016482	      3.15244921	     27.17992218	      0.47437913	      4.27363838	      0.00000000	      0.00000000	     -5.00335078	      1.47043694	    -11.25159349	      0.00000000	      0.00000000	      0.00000000	      0.00000000	      0.00000000	      0.00000000	      0.00000000	      0.00000000	      0.00000000	      0.00000000	      0.00000000	      0.00000000	      0.00000000	      0.00000000
      0.84000000	     -1.40131425	      4.64690711	    -87.64779041	      0.22098470	      0.88141638	      0.05564090	     30.64865768	      1.58116583	     -2.83761531	     15.70958691	      0.27418402	     -5.63563222	      0.00000000	      0.00000000	    -10.45110409	     -1.59940355	      1.81806963	     31.54829274	      0.55062158	      1.20660147	     -0.00000000	     -0.00000000	     -5.21470994	      2.01135924	    -10.87462875	      0.00000000	      0.00000000	     -0.00000000	      0.00000000	      0.00000000	     -0.00000000	      0.00000000	     -0.00000000	      0.00000000	     -0.00000000	      0.00000000	      0.00000000	      0.00000000	     -0.00000000
      0.85000000	     -1.67088178	      4.57624620	    -87.94468171	      0.21920806	      0.88249417	      0.07026600	     30.62602248	      2.10647452	     -2.46372176	     17.74957135	      0.30978846	     -4.34364266	      0.00000000	      0.00000000	     -8.38337642	     -2.35338917	      0.62345002	     36.09456713	      0.62996904	     -1.87013316	      0.00000000	      0.00000000	     -5.17656885	      2.37488716	    -10.40639866	      0.00000000	      0.00000000	      0.00000000	      0.00000000	      0.00000000	      0.00000000	      0.00000000	      0.00000000	      0.00000000	      0.00000000	      0.00000000	      0.00000000	      0.00000000	      0.00000000
      0.86000000	     -2.19225203	      4.20887721	    -88.19496536	      0.21729965	      0.88431247	      0.08497419	     30.01057486	      2.89896676	     -2.33680478	     19.35110452	      0.33774049	     -2.96731215	      0.00000000	      0.00000000	     -6.61551539	     -3.49578402	     -0.49142056	     40.50625969	      0.70696760	     -4.98204610	      0.00000000	      0.00000000	     -5.47885269	      3.02196799	     -9.98262530	      0.00000000	      0.00000000	      0.00000000	      0.00000000	      0.00000000	      0.00000000	      0.00000000	      0.00000000	      0.00000000	      0.00000000	      0.00000000	      0.00000000	      0.00000000	      0.00000000
      0.87000000	     -2.63455434	      4.05502391	    -88.45980119	      0.21523071	      0.88607373	      0.09924607	     29.42897608	      3.66117115	     -2.04721658	     20.57494881	      0.35910060	     -1.33760278	      0.00000000	      0.00000000	     -4.49823419	     -4.61755954	     -1.48223579	     44.93253785	      0.78422073	     -7.74657691	     -0.00000000	      0.00000000	     -5.57506469	      3.51592944	     -9.51671040	      0.00000000	      0.00000000	      0.00000000	      0.00000000	      0.00000000	      0.00000000	      0.00000000	     -0.00000000	     -0.00000000	     -0.00000000	      0.00000000	      0.00000000	      0.00000000	     -0.00000000
      0.88000000	     -3.03587307	      3.99387532	    -88.70743437	      0.21325669	      0.88795717	      0.11323091	     28.74006576	      4.36515016	     -1.80837255	     21.42020575	      0.37385312	      0.24671620	      0.00000000	     -0.00000000	     -2.23483865	     -5.69276748	     -2.24650530	     49.23358119	      0.85928809	     -9.96681602	     -0.00000000	     -0.00000000	     -5.59046859	      3.96756761	     -9.07664692	      0.00000000	      0.00000000	     -0.00000000	      0.00000000	      0.00000000	     -0.00000000	      0.00000000	      0.00000000	     -0.00000000	      0.00000000	      0.00000000	      0.00000000	      0.00000000	      0.00000000
